HIERARCHY
ROOT Hips
{
	OFFSET 0.00000 0.00000 0.00000
	CHANNELS 6 Xposition Yposition Zposition Zrotation Yrotation Xrotation 
	JOINT LHipJoint
	{
		OFFSET 0 0 0
		CHANNELS 3 Zrotation Yrotation Xrotation
		JOINT LeftHip
		{
			OFFSET 1.75344 -1.53157 0.77399
			CHANNELS 3 Zrotation Yrotation Xrotation
			JOINT LeftKnee
			{
				OFFSET 2.25415 -6.19323 0.00000
				CHANNELS 3 Zrotation Yrotation Xrotation
				JOINT LeftAnkle
				{
					OFFSET 2.30342 -6.32861 0.00000
					CHANNELS 3 Zrotation Yrotation Xrotation
					JOINT LeftToe
					{
						OFFSET 0.10958 -0.30108 1.49206
						CHANNELS 3 Zrotation Yrotation Xrotation
						End Site
						{
							OFFSET 0.00000 -0.00000 0.77783
						}
					}
				}
			}
		}
	}
	JOINT RHipJoint
	{
		OFFSET 0 0 0
		CHANNELS 3 Zrotation Yrotation Xrotation
		JOINT RightHip
		{
			OFFSET -1.81912 -1.53156 0.77399
			CHANNELS 3 Zrotation Yrotation Xrotation
			JOINT RightKnee
			{
				OFFSET -2.22882 -6.12365 0.00000
				CHANNELS 3 Zrotation Yrotation Xrotation
				JOINT RightAnkle
				{
					OFFSET -2.21943 -6.09785 0.00000
					CHANNELS 3 Zrotation Yrotation Xrotation
					JOINT RightToe
					{
						OFFSET -0.18931 -0.52012 1.59379
						CHANNELS 3 Zrotation Yrotation Xrotation
						End Site
						{
							OFFSET -0.00000 -0.00000 0.84686
						}
					}
				}
			}
		}
	}
	JOINT lowerback
	{
		OFFSET 0 0 0
		CHANNELS 3 Zrotation Yrotation Xrotation
		JOINT Chest
		{
			OFFSET -0.00200 1.66634 -0.14248
			CHANNELS 3 Zrotation Yrotation Xrotation
			JOINT Chest2
			{
				OFFSET -0.00875 1.64542 0.09514
				CHANNELS 3 Zrotation Yrotation Xrotation
				JOINT lowerneck
				{
					OFFSET 0 0 0
					CHANNELS 3 Zrotation Yrotation Xrotation
					JOINT Neck
					{
						OFFSET 0.02257 1.59605 0.00839
						CHANNELS 3 Zrotation Yrotation Xrotation
						JOINT Head
						{
							OFFSET -0.10214 1.57530 -0.23335
							CHANNELS 3 Zrotation Yrotation Xrotation
							End Site
							{
								OFFSET -0.03588 1.60717 -0.08062
							}
						}
					}
				}
				JOINT LeftCollar
				{
					OFFSET 0 0 0
					CHANNELS 3 Zrotation Yrotation Xrotation
					JOINT LeftShoulder
					{
						OFFSET 2.54983 1.10186 0.40078
CHANNELS 3 Zrotation Xrotation Yrotation
						JOINT LeftElbow
						{
OFFSET 0 -4.288400 0.000000
CHANNELS 3 Zrotation Xrotation Yrotation
							JOINT LeftWrist
							{
OFFSET 0 -3.065520 -0.000000
CHANNELS 3 Zrotation Xrotation Yrotation
								JOINT lhand
								{
									OFFSET 0 0 0
CHANNELS 3 Zrotation Xrotation Yrotation
									JOINT LFingers
									{
OFFSET 0 -0.753040 0.000000
CHANNELS 3 Zrotation Xrotation Yrotation
										End Site
										{
OFFSET 0 -0.607120 0.000000
										}
									}
								}
								JOINT LThumb
								{
OFFSET 0 0.000000 0.000000
CHANNELS 3 Zrotation Xrotation Yrotation
									End Site
									{
OFFSET 0 -0.616390 0.616390
									}
								}
							}
						}
					}
				}
				JOINT RightCollar
				{
					OFFSET 0 0 0
					CHANNELS 3 Zrotation Yrotation Xrotation
					JOINT RightShoulder
					{
						OFFSET -2.60909 1.35448 0.21802
CHANNELS 3 Zrotation Xrotation Yrotation
						JOINT RightElbow
						{
OFFSET 0 -4.521720 -0.000000
CHANNELS 3 Zrotation Xrotation Yrotation
							JOINT RightWrist
							{
OFFSET 0 -2.891400 0.000000
CHANNELS 3 Zrotation Xrotation Yrotation
								JOINT rhand
								{
									OFFSET 0 0 0
CHANNELS 3 Zrotation Xrotation Yrotation
									JOINT RFingers
									{
OFFSET 0 -0.680540 0.000000
CHANNELS 3 Zrotation Xrotation Yrotation
										End Site
										{
OFFSET 0 -0.548670 0.000000
										}
									}
								}
								JOINT RThumb
								{
OFFSET 0 0.000000 0.000000
CHANNELS 3 Zrotation Xrotation Yrotation
									End Site
									{
OFFSET 0 -0.557050 0.557050
									}
								}
							}
						}
					}
				}
			}
		}
	}
}
MOTION
Frames: 7
Frame Time: 0.008333333333333333
8.688800 15.163900 42.097100 -179.007000 -16.819800 177.549000 0.000000 0.000000 0.000000 -24.889800 -26.029500 -0.543800 2.451500 9.749200 28.168200 1.466400 -0.315900 -22.810800 5.329400 -13.745400 -42.226900 0.000000 0.000000 0.000000 27.064200 8.930400 0.438400 -1.798400 -8.432900 24.036900 -0.064900 -22.534900 -32.181700 -0.659500 -5.194100 14.463100 3.300100 2.014700 10.461700 -0.032100 3.052900 -0.282200 -2.356400 1.383300 -5.992400 4.672700 10.235900 -6.394600 -1.589600 13.360100 12.195500 -0.351400 6.600600 5.138800 -0.000000 -0.000000 0.000000 5.181700 10.984800 -40.441700 22.005300 -32.983000 6.588700 3.354100 13.002400 39.892400 0.000000 0.000000 0.000000 -7.125000 0.000000 0.000000 -16.309300 -8.558600 -19.295300 -0.000000 -0.000000 0.000000 -6.553300 11.499400 51.653000 -19.075300 -29.512100 -5.067900 -3.660600 14.791700 57.240600 0.000000 0.000000 0.000000 7.125000 0.000000 -0.000000 84.526900 73.414900 -67.052100
8.724770 15.197949 42.051159 -179.631369 -15.880813 179.299409 0.000000 0.000000 0.000000 -24.541222 -25.648639 -1.857999 2.286450 9.438867 27.178003 1.436725 -0.112482 -22.643430 2.671431 -10.142953 -29.441113 0.000000 0.000000 0.000000 26.551505 10.849191 -0.718283 -1.862555 -8.573714 24.470702 -0.230587 -22.636235 -33.343641 -0.460379 -4.352332 12.070121 1.376028 2.439087 8.338219 0.061485 3.382423 -0.683535 -1.137898 1.625797 -5.311104 4.585389 10.359707 -6.831347 -1.096842 13.457514 12.590521 -0.148509 6.668003 5.297128 0.000000 0.000000 0.000000 5.087360 10.858784 -41.309203 22.005903 -32.983667 6.589094 6.399831 10.775394 39.764637 0.000000 0.000000 0.000000 -7.125000 0.000000 0.000000 -14.770302 -8.806840 -17.403644 0.000000 0.000000 0.000000 -6.512098 10.981615 51.351340 -18.989083 -29.405082 -5.025498 -13.491457 23.164125 55.723089 0.000000 0.000000 0.000000 7.125000 0.000000 0.000000 77.555911 76.828018 -64.037732
8.723794 15.190590 42.051541 -179.713482 -15.885461 179.153881 0.000000 0.000000 0.000000 -24.725310 -25.512450 -1.638047 2.275486 9.417656 27.110859 1.434735 0.056540 -22.683720 2.995097 -10.687045 -31.231543 0.000000 0.000000 0.000000 26.411850 10.498768 -0.838487 -1.903173 -8.661305 24.741449 -0.254764 -22.553902 -33.383086 -0.469191 -4.392563 12.183952 1.335570 2.358203 8.503439 0.035379 3.270858 -0.673576 -1.136245 1.570049 -5.397707 4.725380 10.344673 -6.953937 -1.352791 13.457097 12.307489 -0.245965 6.662773 5.256673 0.000000 0.000000 0.000000 5.010268 10.710278 -42.163130 22.206795 -33.209866 6.698711 7.959620 10.341033 39.277568 0.000000 0.000000 0.000000 -7.125000 0.000000 0.000000 -13.937323 -8.546934 -16.308557 0.000000 0.000000 0.000000 -6.512737 10.607955 51.573183 -18.995108 -29.412608 -5.028408 -13.068440 21.914594 56.435825 0.000000 0.000000 0.000000 7.125000 0.000000 0.000000 80.627999 76.718623 -66.917890
8.720975 15.189372 42.042149 -179.905095 -15.994114 179.023681 0.000000 0.000000 0.000000 -25.026990 -25.378172 -1.315686 2.244100 9.357100 26.918838 1.410824 0.062612 -22.495589 2.954736 -10.620530 -31.011304 0.000000 0.000000 0.000000 26.268797 10.390333 -0.669345 -1.931198 -8.721260 24.927194 -0.418909 -22.307029 -34.046921 -0.463425 -4.366722 12.110811 1.267805 2.329003 8.543588 -0.031228 3.222106 -0.674180 -1.163256 1.546723 -5.422127 4.667037 10.415092 -6.822029 -1.212894 13.547090 12.071347 -0.204124 6.718209 5.149861 0.000000 0.000000 0.000000 5.157797 10.656430 -43.200897 22.445576 -33.476891 6.829994 6.287203 11.882379 38.564152 0.000000 0.000000 0.000000 -7.125000 0.000000 0.000000 -14.729107 -7.635867 -17.094385 0.000000 0.000000 0.000000 -6.560108 10.578248 51.917921 -19.136199 -29.587533 -5.097943 -11.711414 21.030302 57.244668 0.000000 0.000000 0.000000 7.125000 0.000000 0.000000 83.971118 76.242957 -69.707468
8.724926 15.185431 42.041804 -179.770544 -15.958317 178.913763 0.000000 0.000000 0.000000 -24.899501 -25.423748 -1.303917 2.280808 9.427913 27.143314 1.454789 -0.262911 -22.736948 2.609219 -10.033782 -29.086306 0.000000 0.000000 0.000000 26.428336 10.374244 -0.575637 -1.922814 -8.703360 24.871624 -0.363782 -22.400691 -33.839182 -0.506403 -4.561205 12.661108 1.363869 2.256363 8.611807 0.080739 3.143082 -0.719698 -1.094970 1.505107 -5.511806 4.689052 10.460992 -6.518149 -1.454255 13.652348 11.548508 -0.304243 6.765987 4.958461 0.000000 0.000000 0.000000 5.024215 10.577752 -43.374721 22.291904 -33.305309 6.745458 7.093104 11.959378 38.386430 0.000000 0.000000 0.000000 -7.125000 0.000000 0.000000 -14.301017 -7.570476 -16.552257 0.000000 0.000000 0.000000 -6.684059 10.654778 52.307442 -19.311266 -29.803586 -5.184675 -12.583757 21.754422 56.270122 0.000000 0.000000 0.000000 7.125000 0.000000 0.000000 79.921864 76.533613 -66.018640
8.734398 15.186014 42.041800 -179.757932 -15.955309 178.752247 0.000000 0.000000 0.000000 -24.835916 -25.050782 -1.381147 2.293125 9.451721 27.218950 1.438218 -0.205784 -22.624658 3.023625 -10.732761 -31.384240 0.000000 0.000000 0.000000 26.475408 10.098565 -0.463549 -1.907479 -8.670600 24.770281 -0.426801 -22.025070 -33.744691 -0.468485 -4.389696 12.175673 1.335406 2.203309 8.777016 0.156226 3.072082 -0.625787 -0.996180 1.471057 -5.514029 4.480627 10.511742 -6.380330 -1.405909 13.749174 10.713409 -0.288096 6.823313 4.661518 0.000000 0.000000 0.000000 5.025871 10.717684 -43.294650 22.477117 -33.512076 6.847449 6.372381 11.602682 38.383303 0.000000 0.000000 0.000000 -7.125000 0.000000 0.000000 -14.671192 -7.472879 -16.986690 0.000000 0.000000 0.000000 -6.854733 10.413628 52.786869 -19.255566 -29.735004 -5.157018 -12.547514 21.583472 56.804209 0.000000 0.000000 0.000000 7.125000 0.000000 0.000000 82.176130 76.540047 -68.249534
8.752734 15.182675 42.043849 -179.744454 -15.876665 178.611172 0.000000 0.000000 0.000000 -24.826562 -25.044913 -1.266133 2.303163 9.470898 27.279680 1.439391 -0.169245 -22.645885 3.043571 -10.762503 -31.485926 0.000000 0.000000 0.000000 26.589837 10.192785 -0.183486 -1.878626 -8.608669 24.578598 -0.476284 -21.925886 -33.914768 -0.466954 -4.382845 12.156369 1.239908 2.250286 8.925487 0.217522 3.121673 -0.413354 -0.886277 1.498923 -5.382232 4.299835 10.292601 -6.515265 -1.547823 13.490426 9.836279 -0.342825 6.694559 4.402881 0.000000 0.000000 0.000000 5.035109 10.540897 -43.262597 22.548634 -33.591533 6.886966 5.419024 11.234367 37.622560 0.000000 0.000000 0.000000 -7.125000 0.000000 0.000000 -15.106497 -6.622753 -17.329288 0.000000 0.000000 0.000000 -7.073874 10.196824 52.977219 -19.304031 -29.794739 -5.181066 -12.694975 21.235776 56.334865 0.000000 0.000000 0.000000 7.125000 0.000000 0.000000 80.194192 76.577671 -66.335014
